# xmcd
#
# Track frame offsets:
#  150
#  11252
#  23029
#  35931
#  55733
#  66310
#  80862
#  91964
#  107566
#  125568
#  136595
#  146647
#  162924
#  177851
#  196528
#  213930
#  228632
#  245659
#  246561
#  247538
#  248065
#  248592
#  249119
#  249946
#  250548
#  251675
#  252277
#  253254
#  253781
#  254758
#  255360
#
# Disc length: 3419 seconds
#
# Revision: 0
# Processed by: cddbd v1.5.2PL0 Copyright (c) Steve Scherf et al.
# Submitted via: Collectorz.com_Music_Collector 6.11
#
DISCID=a90d591f
DTITLE=Various Artist - NfS Country Singles Volume 22
DYEAR=1995
DGENRE=Country
TTITLE0=Jim Haynes - Weelabarabak For Me
TTITLE1=Rosemary Rae and Graeme Connors - Slowly But Surely
TTITLE2=John Williamson - On Our Selection
TTITLE3=Rex Dallas - King of Them All
TTITLE4=Oberle Brothers - Goin' Outback
TTITLE5=Felicity Urquhart - Daddy's Girl No more
TTITLE6=Col Elliott - Everything's Coing Up roses
TTITLE7=craig giles - Captured
TTITLE8=Peter Coad - Riding Out The Storm
TTITLE9=Tanya Sullivan - Lovin' The Bottle
TTITLE10=peter salata - How You Gonna Make It
TTITLE11=Greg Austen - Growing Up
TTITLE12=Ian Betteridge - The Wedding Song
TTITLE13=George Jones and Tammy Wynette - One
TTITLE14=Reba Mcentire - The Heart Is A Lonely Hunter
TTITLE15=Trisha Yearwood - You Can Sleep While I Drive
TTITLE16=Mavericks - I Should Have Been True
TTITLE17=Jim Haynes - Weelabarabak Wordsearch Drops
TTITLE18=Jim Haynes - Weelabarabak Wordsearch Drops
TTITLE19=Jim Haynes - Weelabarabak Wordsearch Drops
TTITLE20=Jim Haynes - Weelabarabak Wordsearch Drops
TTITLE21=Jim Haynes - Weelabarabak Wordsearch drops
TTITLE22=Jim Haynes - Weelabarabak Wordsearch Drops
TTITLE23=Jim Haynes - Weelabarabak Wordsearch Drops
TTITLE24=Jim Haynes - Weelabarabak Wordsearch Drops
TTITLE25=Jim Haynes - Weelabarabak Wordsearch Drops
TTITLE26=Jim Haynes - Weelabarabak Wordsearch Drops
TTITLE27=Jim Haynes - Weelabarabak Wordsearch Drops
TTITLE28=Jim Haynes - Weelabarabak Wordsearch Drops
TTITLE29=Jim Haynes - Weelabarabak Wordsearch Drops
TTITLE30=Jim Haynes - Weelabarabak Wordsearch Drops
EXTD=
EXTT0=
EXTT1=
EXTT2=
EXTT3=
EXTT4=
EXTT5=
EXTT6=
EXTT7=
EXTT8=
EXTT9=
EXTT10=
EXTT11=
EXTT12=
EXTT13=
EXTT14=
EXTT15=
EXTT16=
EXTT17=
EXTT18=
EXTT19=
EXTT20=
EXTT21=
EXTT22=
EXTT23=
EXTT24=
EXTT25=
EXTT26=
EXTT27=
EXTT28=
EXTT29=
EXTT30=
PLAYORDER=
